<svg id="Layer_1" data-name="Layer 1" xmlns="http://www.w3.org/2000/svg" xmlns:xlink="http://www.w3.org/1999/xlink" viewBox="0 0 400.66 553.79">
  <defs>
    <style>
      .cls-1 {
        fill: #fff;       
      }
    </style>
  </defs>
  <title>already</title>
  <path class="cls-1" d="M501.81,314.7,512.42,389c-1.77,1.11-.89,2.83-.88,4.27.26,23.41-10.29,40.36-30.32,52.1a429.51,429.51,0,0,1-39.83,20.29c-15.6,7.1-17.27,6-18.8-11.52-1-12-.31-24.13-3.42-35.94-2-7.67-5.39-13.24-10.83-16.71a15.83,15.83,0,0,0,.31,3.42c7.05,20.35,6.6,41.79,9.18,62.79.52,4.23.91,8.59-2.32,12.08-12.16,13.15-25.89,24.47-40.44,34.87-2.51,1.79-3.63,1-3.89-1.76-1.84-19.13-8.87-38.06-2.37-57.54,2.71-8.13,1.29-15.73-2.57-23.21-2.87-5.58-4.92-11.49-4.35-18,.81-9.32,1.55-18.64,2.44-27.95.74-7.7.78-7.58,8.23-5.3,2.57.79,6.15,3.5,7.8.23,1.53-3-2.87-3.88-4.81-5.08-16-9.79-24.51-23.65-24-42.65.1-4.23,0-8.49.46-12.69,1.72-16.77-13.8-39.67-31.55-41.79-10.13-1.21-20.17-3.5-30.38-4.29-37-2.85-72.93,4.08-108.81,11.63-2.25.47-4.17,1.3-4.85,4,1.47.92,3,.65,4.51.33,25.67-5.52,51.74-7.32,77.88-7.48,20.73-.14,41.38,1.26,61.44,7.41,16.58,5.09,19.41,18.88,21.32,33.11,1.5,11.13-6.26,17.32-14.29,22.26a184,184,0,0,1-75.13,26.34c-17.06,2-34.26,2.84-51.39,4.29-1.24.11-3.25-.7-3.69,2.45,25,1.29,49.84,3.31,74.54-1.33,24.53-4.6,47.39-14,69-26.28,5.1-2.88,6.61-1.43,8.49,3.08,3.24,7.76,3.74,16,5.37,24.11,2.55,12.65-.36,23.73-7.87,34.08-5,7-11.93,11.29-19.34,15-18.87,9.4-39,15.46-59.4,20.11-24.3,5.52-48.52,12.41-74,9.78-2.62-.27-5.84-.83-7,3.09a36.79,36.79,0,0,0,15.29,2.77c11.81-.61,23.64-1,35.44-1.81,39.89-2.85,78.4-9.88,110.41-36.7,5.69-4.77,8.9-3.43,10.68,4.09,5.31,22.37.22,42.28-16.11,58.47-23.26,23.08-52.4,34.15-84.28,38.34-13.91,1.82-28,2-42.07,2.89-1.56.1-3.59,0-3.73,2-.16,2.14,2.11,1.89,3.46,2.15,11.42,2.14,23,2.3,34.59,2.8q55.34,2.4,94-37.21c3.08-3.14,6.07-6.35,9.35-9.78,3.21,6.3,6.18,11.94,6.53,18.62.8,15.17-6,27.09-15.78,37.77-8.87,9.65-20.24,15.59-31.67,21.46l-19.9,2.84c-.91-1.41-2.36-.93-3.63-1-25.66-1.73-51.17-4.83-76.7-7.8-3.74-.43-7.44-1.24-11.14-1.92-6.37-1.17-11.55-4.58-13.79-10.48-5.28-13.9-15.67-23.06-27.36-31-9.57-6.54-14.89-15.46-15.28-26.79-.67-19.37-7.3-36-20.93-49.79l-4-26.78c5.4-20.65,5-40.82-4.07-60.59-9.74-21.19-2.56-38.45,13.26-53.49a125.27,125.27,0,0,1,39.63-25.51c5.37-2.18,10.79-4.26,16.7-4.36a102.57,102.57,0,0,0,38.32-8.3,110,110,0,0,0,29.74-18.88c6.14-5.36,7-5,8.89,3.11.64,2.79.48,6,2.78,8.84,7.89-12.18-2.45-26.7,6.31-38.56,9,11.13,16.36,22.89,26.66,33.5.78-4.85-1.3-7.33-3-9.86-10.88-16-21.89-32-32.7-48-21.86-32.49-33.39-68.46-33.37-107.51,0-27.39,4.45-53.66,33.54-67l10.62-1.52c21.37,1.83,34.15,15,43.46,32.83.41.79.73,1.63,1.12,2.43C329,72.66,333.47,96.26,337.28,120.1c2.79,17.4,5,35,9.38,52,9.25,35.56,24.69,68.14,50.18,95.36,7.87,8.4,13.88,18.07,15,30,.57,6,.76,12,1.29,18,.66,7.47.24,15.14,3.49,22.21,5-17.34,3.61-34.46-1-51.46-2-7.27-1.31-9.1,5.78-11.48,9.5-3.18,19-6.38,28.6-9.28,16.74-5.05,27-1.29,36.63,13.38a73.38,73.38,0,0,1,6.48,12.39C496.23,298.94,498.92,306.86,501.81,314.7ZM298.31,163l-25,3.57C282.24,171.06,292.73,169,298.31,163Zm-7,173.37,1.82-.49c1.28-8-2.34-14.23-8.45-19.61Zm13,84.77c2-10-.7-17.29-7.11-21.23C299.44,406.66,301.58,413,304.3,421.16ZM315,489.47c3-8,.9-14.71-5.93-18.8C311,477.07,312.89,482.92,315,489.47Zm3.15-246.84c8.26,4.45,13.14,3.26,16.53-3.15Zm3.44,297.16c-.32,2.45.84,4.09,1.77,5.79s.38,5.37,3.81,3.52c2.46-1.34,1.17-4,.06-5.83S324.36,539.6,321.54,539.79Z" transform="translate(-111.76 -15.52)"/>
</svg>
