<svg id="Layer_1" data-name="Layer 1" xmlns="http://www.w3.org/2000/svg" xmlns:xlink="http://www.w3.org/1999/xlink" viewBox="0 0 396.8 574.87">
  <defs>
    <style>
      .cls-1 {
        fill: #fff;
      }
    </style>
  </defs>
  <title>yes</title>
  <path class="cls-1" d="M281.36,579.3c-26.6-5-26.92-14.62-52.09-21.3-3.26-.86-10-2.66-15.12-8.41A26.25,26.25,0,0,1,208.38,538c-1.61-6.72-5.18-12.52-9.83-17.76-4.08-4.59-7.81-9.54-12.48-13.55-7.55-6.47-10.14-14.86-10.24-24.36-.07-6.15-.19-12.31,0-18.45a43.87,43.87,0,0,0-7.39-26.6c-9.28-13.61-8.53-28.7-4.33-42.67,5.55-18.47,7.73-36.36,2.95-55.05a105.32,105.32,0,0,1-1.9-11.46c-1.7-11.86,1.88-21.87,10.06-30.64a88.09,88.09,0,0,1,25.57-19.15c16.21-8,32.68-15,51.62-12.57a78,78,0,0,0,21.12-.59,118.68,118.68,0,0,0,45.2-16.67c5.87-3.61,7.11-2.77,7.82,3.44.32,2.88-1.2,7.58,3.08,7.78,3.87.19,4.7-4.3,5.57-7.62a41.76,41.76,0,0,0,.6-4.74c.76-5.18,1.18-10.4,1.84-15.6.17-1.32.51-2.93,2-3.25s2.28,1.2,3,2.3c1,1.51,1.91,3.11,2.86,4.67,4.14,6.81,8.63,13.4,13.2,19.94,1.14,1.64,2.61,4,4.81,3,2.42-1.11,1.92-3.86,1.43-6.11a16.62,16.62,0,0,0-2.65-5.51c-18.79-28.31-38.31-56-61.65-80.88a89.74,89.74,0,0,1-20.12-33.07c-9.64-28.95-6.07-57.32,6.26-84.45,10.2-22.46,28.36-35.86,53-39.4,26.07-3.75,51.49-.65,75.54,10,20.75,9.21,34,25.14,36.92,48.15,3.48,27.25.06,54.11-6.85,80.48-4.67,17.83-10.76,35.26-14.3,53.44-3.25,16.66-1.38,32.39,4.47,48.21,6.16,16.66,15.76,31.28,24.91,46.23a53.46,53.46,0,0,1,8.27,29.11c-.07,10.27-2.3,20.41-1.48,30.67.31,3.8-1.94,10,2.69,10.63,4,.56,5.05-5.74,5.94-9.6a125.45,125.45,0,0,0,2.65-42.74c-.61-5.34,1.15-8.41,6.34-9.37,12.08-2.23,24.09-4.9,36.44-5.47,10.5-.5,17.9,4.21,23.14,12.89a79.17,79.17,0,0,1,10.11,28.86c4.68,29.89,3.47,59.92,1.6,89.94C554.7,455.85,541.44,472.75,518,482c-15.9,6.3-32.22,11.35-48.61,16.19-5.23,1.54-7,.31-7.55-5.4-.59-6.58-.05-13.16.33-19.77.75-12.86,3.09-25.95-2.71-38.35-1.31-2.78-2.55-7.24-6.09-6.31s-2.74,5.51-2.26,8.47c3.15,19.58-.43,39.09-.24,58.63,0,4.74-1.08,9.24-4.82,12.35-12.31,10.22-25.93,18.5-39.9,26.22-3.2,1.77-4.81.41-4.7-3,.54-18.08-2.63-36.5,5.27-53.91,3.53-7.78,3.64-15.83.77-24-2.48-7-2.49-14.28-.9-21.58,1.3-6,2.34-12.08,4-18,.91-3.26.62-7.32,3.3-9.5,3-2.45,5.79,1.39,8.84,1.73a3.2,3.2,0,0,1,.67.13c1.85.23,3.78.37,4.92-1.44s0-3.54-1.11-5c-3-3.76-6.63-6.89-9.93-10.35-6.88-7.23-10.72-15.5-10.55-25.8a160.92,160.92,0,0,1,2.42-25.12c3.27-18.6-7.47-42.12-28.79-48.62-11.77-3.6-23.48-7.27-35.6-9.58-34.37-6.54-68.94-4.37-103.51-2.7a8.92,8.92,0,0,0-5.14,1.61c-1.13.87-2.12,2-2,3.4.16,1.61,1.66,2,3,2.3a38.12,38.12,0,0,0,8.86.4c29.45-.59,58.73,1.31,87.67,6.83,15.66,3,31.2,6.59,45.57,14,8.91,4.61,13.79,11.59,14.32,21.61a41.21,41.21,0,0,0,.7,5.42c1.87,9.94-1.77,17.35-10.28,22.57a62.92,62.92,0,0,1-10.31,5.33,203.53,203.53,0,0,1-92.55,12.7c-11.07-1-22.19-2.39-33.36-1.87-2.09.1-5.16-.26-5.3,2.78-.1,2.33,2.49,3,4.49,3.49,5.31,1.31,10.69,2.28,16.06,3.3,24.51,4.64,49.14,7.15,74,3.51,17.65-2.57,34.71-7.49,51.56-13.24,7.42-2.53,9.25-1.44,10.09,6.54.77,7.25.1,14.57.33,21.85.57,18.8-9.43,30.7-25.32,38.59-7,3.46-14.57,5.17-22.11,7a351,351,0,0,1-66.24,9.06c-18.32.81-36.89,2.44-55.13-1.87a15.4,15.4,0,0,0-6.79-.08c-1.57.34-3.21.77-3.41,2.77-.15,1.55.92,2.52,2.05,3.29,3.46,2.37,7.39,3.4,11.49,4.07a339.82,339.82,0,0,0,37.36,3.64c18.86.95,37.82,1.8,56.63-.51,20.5-2.51,40.08-8.09,58-18.93,8-4.81,11.76-2,11.59,7.23-.43,24.06-11,42.39-31.37,55-22.24,13.74-46.75,20-72.69,21a273,273,0,0,1-46.33-2.39c-2.94-.4-6-.66-8.75.63-3.07,1.44-3.55,3.52-.51,5.54s6.67,2.93,10.2,3.81c12.84,3.2,25.85,5.82,39,6.81,10.85.82,21.86,1.3,32.71-.72,22.21-4.13,41.84-13.77,59.45-27.78,4.74-3.77,6.38-3.15,7.31,2.89a41.89,41.89,0,0,1-1,18.21,47.36,47.36,0,0,1-9.43,16.55C361.9,569.9,360.17,570.15,353.44,572c-1.3.9-24.25,8.84-27.17,9.88-1.44.52-4.95.51-14.2.17C302.38,581.71,292.14,581.34,281.36,579.3Zm21.5-464.13c-2.38,3.31,16.63,31.1,45.45,35.66,37.77,6,73.5-30.91,72.73-32.17-.52-.84-17,16-44.05,18.89C336.3,142,305.62,111.32,302.86,115.17Zm52.8-66.44c-15.53,0-28.11,10.49-28.11,23.43s12.58,23.43,28.11,23.43,28.11-10.49,28.11-23.43S371.18,48.73,355.66,48.73Zm49.3,4.2c-12,0-21.68,9.18-21.68,20.51S393,93.94,405,93.94s21.68-9.18,21.68-20.5S416.93,52.93,405,52.93Zm-47.2,14.69a10.84,10.84,0,1,0,10.83,10.83A10.83,10.83,0,0,0,357.76,67.62Zm51,3.49a10.14,10.14,0,1,0,10.14,10.14A10.14,10.14,0,0,0,408.8,71.11Z" transform="translate(-161.14 -7.43)"/>
</svg>
